<svg width="32" height="20" viewBox="0 0 32 20" fill="none" xmlns="http://www.w3.org/2000/svg">
<g clip-path="url(#clip0_16_50)">
<path d="M9.04906 7.36712C9.04906 7.75925 9.09156 8.07712 9.16568 8.31025C9.2598 8.57252 9.37311 8.8275 9.50468 9.07312C9.55768 9.15787 9.57881 9.24262 9.57881 9.31687C9.57881 9.42275 9.51531 9.52875 9.37756 9.63475L8.71006 10.0797C8.61468 10.1434 8.51931 10.1751 8.43443 10.1751C8.32856 10.1751 8.22256 10.1221 8.11656 10.0267C7.97367 9.87343 7.84595 9.70666 7.73518 9.52875C7.62918 9.34875 7.52318 9.14725 7.40668 8.90362C6.5801 9.87837 5.54168 10.3658 4.29143 10.3659C3.40143 10.3659 2.69143 10.1115 2.17218 9.603C1.65306 9.09425 1.38818 8.41612 1.38818 7.5685C1.38818 6.66787 1.70606 5.93675 2.35243 5.38575C2.99868 4.83475 3.85706 4.55925 4.94843 4.55925C5.30868 4.55925 5.67956 4.591 6.07156 4.644C6.46368 4.697 6.86631 4.78175 7.29018 4.87712V4.10362C7.29018 3.29825 7.12056 2.73675 6.79206 2.40825C6.45306 2.07975 5.88081 1.92075 5.06493 1.92075C4.69406 1.92075 4.31268 1.96325 3.92056 2.05862C3.52843 2.154 3.14706 2.2705 2.77618 2.41887C2.60668 2.493 2.47956 2.53537 2.40531 2.55662C2.33106 2.57787 2.27818 2.58837 2.23581 2.58837C2.08743 2.58837 2.01331 2.48237 2.01331 2.25987V1.74062C2.01331 1.57112 2.03456 1.444 2.08743 1.36987C2.14043 1.29562 2.23581 1.2215 2.38418 1.14737C2.75502 0.95654 3.20002 0.797581 3.71918 0.670498C4.23856 0.532748 4.78956 0.469248 5.37231 0.469248C6.63331 0.469248 7.55518 0.755248 8.14856 1.3275C8.73131 1.89962 9.02806 2.7685 9.02806 3.93412V7.36712H9.04906ZM4.74706 8.97775C5.09681 8.97775 5.45706 8.91425 5.83843 8.787C6.21993 8.65987 6.55906 8.42675 6.84506 8.10887C7.01468 7.90762 7.14181 7.68512 7.20531 7.43075C7.26893 7.1765 7.31131 6.86912 7.31131 6.50887V6.06387C6.98996 5.98571 6.66449 5.92558 6.33643 5.88375C6.00608 5.84183 5.67343 5.82058 5.34043 5.82012C4.63043 5.82012 4.11131 5.95787 3.76168 6.244C3.41206 6.53012 3.24243 6.93275 3.24243 7.4625C3.24243 7.9605 3.36956 8.33137 3.63443 8.58575C3.88881 8.85062 4.25968 8.97775 4.74706 8.97775ZM13.2557 10.1221C13.0649 10.1221 12.9378 10.0904 12.8531 10.0161C12.7683 9.95262 12.6941 9.80425 12.6306 9.603L10.1406 1.41225C10.0768 1.20025 10.0451 1.0625 10.0451 0.988373C10.0451 0.818873 10.1298 0.723373 10.2994 0.723373H11.3378C11.5391 0.723373 11.6769 0.755248 11.7511 0.829373C11.8358 0.892998 11.8994 1.04137 11.9629 1.24262L13.7431 8.25725L15.3961 1.24262C15.4491 1.03075 15.5127 0.892998 15.5973 0.829373C15.6822 0.765873 15.8306 0.723498 16.0213 0.723498H16.8689C17.0702 0.723498 17.2081 0.755248 17.2927 0.829373C17.3776 0.892998 17.4517 1.04137 17.4941 1.24262L19.1683 8.342L21.0013 1.24262C21.0648 1.03075 21.1391 0.892998 21.2132 0.829373C21.2979 0.765873 21.4357 0.723498 21.6264 0.723498H22.6118C22.7814 0.723498 22.8768 0.808248 22.8768 0.988373C22.8768 1.04137 22.8662 1.09437 22.8556 1.15787C22.8449 1.22137 22.8238 1.30625 22.7814 1.42287L20.2277 9.6135C20.1642 9.8255 20.09 9.96325 20.0052 10.0267C19.9204 10.0904 19.7827 10.1327 19.6027 10.1327H18.6914C18.4901 10.1327 18.3523 10.101 18.2674 10.0267C18.1827 9.95262 18.1086 9.81487 18.0662 9.603L16.4237 2.7685L14.7919 9.59225C14.7391 9.80425 14.6754 9.942 14.5907 10.0161C14.5059 10.0904 14.3576 10.1221 14.1669 10.1221H13.2557ZM26.8716 10.4082C26.3206 10.4082 25.7696 10.3446 25.2398 10.2175C24.7099 10.0904 24.2968 9.9525 24.0213 9.79375C23.8517 9.69825 23.7351 9.59237 23.6928 9.497C23.6516 9.40345 23.6299 9.30247 23.6292 9.20025V8.65987C23.6292 8.43737 23.7139 8.33137 23.8729 8.33137C23.9378 8.33161 24.0022 8.34238 24.0637 8.36325C24.1272 8.3845 24.2226 8.42675 24.3286 8.46912C24.7028 8.63383 25.0935 8.75816 25.4941 8.84C25.9091 8.92415 26.3315 8.96674 26.7551 8.96712C27.4226 8.96712 27.9418 8.85062 28.3021 8.6175C28.6623 8.38437 28.8531 8.04537 28.8531 7.61087C28.8531 7.31425 28.7577 7.0705 28.5669 6.86912C28.3762 6.66775 28.0159 6.48775 27.4968 6.31812L25.9603 5.84137C25.1868 5.59762 24.6147 5.23737 24.2649 4.7605C23.9153 4.29425 23.7352 3.77512 23.7352 3.22412C23.7352 2.77912 23.8306 2.38704 24.0213 2.04787C24.2119 1.70887 24.4663 1.41225 24.7842 1.17912C25.1021 0.935373 25.4623 0.755248 25.8862 0.628123C26.3099 0.500998 26.7549 0.447998 27.2212 0.447998C27.4543 0.447998 27.6981 0.458623 27.9312 0.490373C28.1749 0.522123 28.3974 0.564498 28.6199 0.606873C28.8318 0.659873 29.0332 0.712873 29.2239 0.776498C29.4146 0.839998 29.5629 0.90354 29.6689 0.967123C29.8173 1.052 29.9232 1.13675 29.9868 1.23212C30.0504 1.31687 30.0822 1.43341 30.0822 1.58175V2.07975C30.0822 2.30225 29.9974 2.41887 29.8384 2.41887C29.7537 2.41887 29.6159 2.37637 29.4359 2.29162C28.8318 2.01612 28.1536 1.87837 27.4014 1.87837C26.7974 1.87837 26.3206 1.97375 25.9921 2.17512C25.6637 2.37637 25.4941 2.68375 25.4941 3.11812C25.4941 3.41487 25.6001 3.66912 25.8119 3.8705C26.0238 4.07187 26.4159 4.27312 26.9776 4.45325L28.4822 4.93012C29.2451 5.17387 29.7961 5.51287 30.1246 5.94725C30.4531 6.38162 30.6121 6.87975 30.6121 7.43075C30.6121 7.88637 30.5166 8.29962 30.3364 8.65987C30.1458 9.02012 29.8914 9.338 29.5629 9.59237C29.2344 9.85725 28.8424 10.048 28.3868 10.1857C27.9099 10.3341 27.4119 10.4082 26.8716 10.4082Z" fill="#7051BA"/>
<path d="M28.8741 15.558C25.3881 18.1329 20.3231 19.4998 15.9682 19.4998C9.86485 19.4998 4.3656 17.2428 0.211972 13.4918C-0.116528 13.1952 0.180097 12.7925 0.572097 13.0255C5.06485 15.6323 10.6066 17.211 16.3391 17.211C20.2066 17.211 24.4556 16.4058 28.3656 14.7528C28.9483 14.4878 29.4463 15.1343 28.8741 15.558ZM30.3258 13.905C29.8808 13.3329 27.3801 13.6295 26.2463 13.7673C25.9072 13.8098 25.8542 13.513 26.1616 13.2905C28.1536 11.8918 31.4278 12.2945 31.8092 12.7607C32.1907 13.2375 31.7032 16.5117 29.8383 18.0799C29.5523 18.3237 29.2768 18.1965 29.404 17.8787C29.8277 16.8295 30.7708 14.4667 30.3258 13.905Z" fill="#7051BA"/>
</g>
<defs>
<clipPath id="clip0_16_50">
<rect width="32" height="19.125" fill="white" transform="translate(0 0.4375)"/>
</clipPath>
</defs>
</svg>
