<svg width="33" height="32" viewBox="0 0 33 32" fill="none" xmlns="http://www.w3.org/2000/svg">
<path d="M23.1669 2.66675H9.83366C6.15176 2.66675 3.16699 5.65152 3.16699 9.33342V22.6667C3.16699 26.3486 6.15176 29.3334 9.83366 29.3334H23.1669C26.8488 29.3334 29.8336 26.3486 29.8336 22.6667V9.33342C29.8336 5.65152 26.8488 2.66675 23.1669 2.66675Z" stroke="#7360DF" stroke-width="2" stroke-linecap="round" stroke-linejoin="round"/>
<path d="M21.8331 15.1599C21.9977 16.2696 21.8082 17.4029 21.2915 18.3986C20.7748 19.3943 19.9573 20.2018 18.9553 20.7061C17.9533 21.2105 16.8177 21.386 15.7102 21.2078C14.6026 21.0296 13.5795 20.5067 12.7863 19.7135C11.993 18.9202 11.4701 17.8971 11.2919 16.7895C11.1137 15.682 11.2892 14.5464 11.7936 13.5444C12.2979 12.5424 13.1054 11.7249 14.1011 11.2082C15.0969 10.6916 16.2302 10.502 17.3398 10.6666C18.4717 10.8344 19.5196 11.3619 20.3287 12.171C21.1379 12.9801 21.6653 14.028 21.8331 15.1599Z" stroke="#7360DF" stroke-width="2" stroke-linecap="round" stroke-linejoin="round"/>
<path d="M23.8335 8.66675H23.8468" stroke="#7360DF" stroke-width="2" stroke-linecap="round" stroke-linejoin="round"/>
</svg>
