<svg width="32" height="32" viewBox="0 0 32 32" fill="none" xmlns="http://www.w3.org/2000/svg">
<path d="M11.9043 24.53C11.9043 24.53 10.7125 25.2235 12.7535 25.4575C15.2265 25.74 16.4903 25.6995 19.2148 25.1845C19.2148 25.1845 19.9325 25.6333 20.933 26.0223C14.8233 28.6398 7.10601 25.8705 11.9043 24.53ZM11.1573 21.1138C11.1573 21.1138 9.82026 22.1035 11.863 22.315C14.5048 22.5878 16.5905 22.61 20.2015 21.915C20.2015 21.915 20.6998 22.4213 21.4845 22.6978C14.099 24.8578 5.87301 22.8678 11.1573 21.1138Z" fill="#7051BA"/>
<path d="M17.4505 15.3177C18.9568 17.0515 17.0555 18.6102 17.0555 18.6102C17.0555 18.6102 20.8778 16.6375 19.1228 14.166C17.483 11.8622 16.226 10.718 23.0315 6.771C23.0315 6.77125 12.3488 9.4385 17.4505 15.3177Z" fill="#7051BA"/>
<path d="M25.5307 27.0572C25.5307 27.0572 26.413 27.7847 24.5587 28.347C21.0332 29.415 9.88223 29.737 6.78523 28.3897C5.67248 27.9052 7.75998 27.2335 8.41673 27.0917C9.10148 26.9435 9.49248 26.9705 9.49248 26.9705C8.25423 26.0987 1.48923 28.683 6.05673 29.4242C18.512 31.4432 28.761 28.515 25.5307 27.0572ZM12.478 17.5735C12.478 17.5735 6.80648 18.9207 10.4697 19.4105C12.0167 19.6175 15.0992 19.57 17.9725 19.329C20.32 19.1317 22.6757 18.7105 22.6757 18.7105C22.6757 18.7105 21.8487 19.0652 21.2497 19.4737C15.4892 20.989 4.36373 20.2832 7.56698 18.7342C10.275 17.4245 12.478 17.5735 12.478 17.5735ZM22.6522 23.2602C28.5075 20.2185 25.8 17.2952 23.9102 17.689C23.4482 17.7852 23.241 17.869 23.241 17.869C23.241 17.869 23.413 17.5992 23.741 17.4832C27.4792 16.1695 30.3537 21.359 22.5352 23.4145C22.5352 23.414 22.625 23.3327 22.6522 23.2602Z" fill="#7051BA"/>
<path d="M19.1227 0.396729C19.1227 0.396729 22.3647 3.64073 16.047 8.62748C10.9805 12.629 14.8917 14.91 16.0452 17.5172C13.0875 14.849 10.918 12.4997 12.3732 10.3135C14.5102 7.10498 20.4305 5.54873 19.1227 0.396729Z" fill="#7051BA"/>
<path d="M13.0535 31.5052C18.6725 31.8645 27.3035 31.3052 27.5077 28.6462C27.5077 28.6462 27.115 29.6542 22.8635 30.454C18.067 31.357 12.15 31.2517 8.64172 30.6725C8.64172 30.6727 9.36047 31.2677 13.0535 31.5052Z" fill="#7051BA"/>
</svg>
