<svg width="32" height="32" viewBox="0 0 32 32" fill="none" xmlns="http://www.w3.org/2000/svg">
<path d="M16 30C15.6222 30.0002 15.2511 29.9009 14.924 29.712L11.5 27.685C10.989 27.399 11.238 27.298 11.407 27.239C11.9506 27.0714 12.4709 26.8362 12.956 26.539C12.9965 26.52 13.0413 26.5117 13.086 26.515C13.1306 26.5183 13.1737 26.5332 13.211 26.558L15.842 28.121C15.891 28.1469 15.9455 28.1605 16.001 28.1605C16.0564 28.1605 16.111 28.1469 16.16 28.121L26.42 22.199C26.4682 22.1705 26.5081 22.1298 26.5356 22.081C26.5632 22.0322 26.5774 21.9771 26.577 21.921V10.075C26.5771 10.0182 26.5625 9.96221 26.5347 9.91263C26.5068 9.86304 26.4666 9.8215 26.418 9.79203L16.158 3.87503C16.1097 3.8475 16.0551 3.83302 15.9995 3.83302C15.9439 3.83302 15.8893 3.8475 15.841 3.87503L5.58697 9.79403C5.53806 9.82296 5.49745 9.86402 5.46907 9.91325C5.44068 9.96248 5.4255 10.0182 5.42497 10.075V21.916C5.42562 21.9718 5.44081 22.0264 5.46905 22.0744C5.49729 22.1225 5.5376 22.1623 5.58597 22.19L8.39997 23.814C9.92497 24.576 10.859 23.678 10.859 22.776V11.085C10.859 11.0055 10.8906 10.9292 10.9468 10.8729C11.0031 10.8166 11.0794 10.785 11.159 10.785H12.459C12.5385 10.785 12.6148 10.8166 12.6711 10.8729C12.7274 10.9292 12.759 11.0055 12.759 11.085V22.777C12.759 24.812 11.651 25.977 9.72097 25.977C8.88843 25.9909 8.06902 25.7683 7.35797 25.335L4.66097 23.788C4.33383 23.5971 4.06238 23.3238 3.87361 22.9954C3.68484 22.6669 3.58533 22.2948 3.58497 21.916V10.075C3.5838 9.69552 3.68263 9.3224 3.87153 8.99323C4.06042 8.66407 4.33271 8.39049 4.66097 8.20003L14.922 2.27603C15.2526 2.09555 15.6233 2.00098 16 2.00098C16.3767 2.00098 16.7473 2.09555 17.078 2.27603L27.338 8.20003C27.665 8.3907 27.9365 8.66362 28.1254 8.99166C28.3143 9.31971 28.4142 9.69147 28.415 10.07V21.916C28.4145 22.2949 28.3148 22.6671 28.1259 22.9955C27.9369 23.324 27.6653 23.5972 27.338 23.788L17.078 29.712C16.7502 29.9012 16.3784 30.0006 16 30Z" fill="#7051BA"/>
<path d="M14.054 17.953C14.054 17.8734 14.0856 17.7971 14.1418 17.7409C14.1981 17.6846 14.2744 17.653 14.354 17.653H15.681C15.7519 17.6532 15.8204 17.6786 15.8744 17.7245C15.9284 17.7705 15.9644 17.834 15.976 17.904C16.176 19.255 16.776 19.936 19.489 19.936C21.65 19.936 22.571 19.447 22.571 18.3C22.571 17.639 22.31 17.148 18.951 16.819C16.143 16.541 14.407 15.919 14.407 13.675C14.407 11.605 16.152 10.37 19.077 10.37C22.364 10.37 23.991 11.511 24.197 13.959C24.2001 13.9999 24.1948 14.0409 24.1815 14.0797C24.1681 14.1185 24.147 14.1541 24.1194 14.1843C24.0917 14.2146 24.0582 14.2389 24.0208 14.2557C23.9834 14.2725 23.9429 14.2814 23.902 14.282H22.566C22.4989 14.2811 22.4342 14.2577 22.382 14.2157C22.3298 14.1736 22.2931 14.1153 22.278 14.05C21.959 12.629 21.178 12.175 19.078 12.175C16.718 12.175 16.444 12.997 16.444 13.613C16.444 14.359 16.768 14.577 19.954 14.998C23.107 15.415 24.605 16.005 24.605 18.221C24.605 20.457 22.741 21.737 19.49 21.737C14.995 21.743 14.054 19.682 14.054 17.953Z" fill="#7051BA"/>
</svg>
