<svg width="34" height="32" viewBox="0 0 34 32" fill="none" xmlns="http://www.w3.org/2000/svg">
<path d="M30.3334 22.56V26.56C30.3349 26.9313 30.2589 27.2989 30.1101 27.6391C29.9613 27.9793 29.7431 28.2848 29.4695 28.5358C29.1959 28.7868 28.8728 28.9779 28.5211 29.0969C28.1693 29.2159 27.7966 29.2601 27.4267 29.2266C23.3239 28.7808 19.3827 27.3788 15.9201 25.1333C12.6985 23.0862 9.96719 20.3549 7.92007 17.1333C5.66671 13.6549 4.2644 9.69463 3.82674 5.5733C3.79342 5.20459 3.83724 4.83298 3.95541 4.48213C4.07357 4.13128 4.2635 3.80889 4.51309 3.53546C4.76269 3.26204 5.06648 3.04358 5.40513 2.894C5.74378 2.74441 6.10986 2.66698 6.48007 2.66663H10.4801C11.1271 2.66026 11.7545 2.8894 12.2451 3.31134C12.7357 3.73328 13.0562 4.31923 13.1467 4.95997C13.3156 6.24006 13.6287 7.49694 14.0801 8.70663C14.2595 9.18387 14.2983 9.70252 14.1919 10.2011C14.0856 10.6998 13.8386 11.1574 13.4801 11.52L11.7867 13.2133C13.6848 16.5514 16.4487 19.3152 19.7867 21.2133L21.4801 19.52C21.8426 19.1615 22.3003 18.9144 22.7989 18.8081C23.2975 18.7018 23.8162 18.7406 24.2934 18.92C25.5031 19.3714 26.76 19.6845 28.0401 19.8533C28.6878 19.9447 29.2793 20.2709 29.7021 20.77C30.125 21.269 30.3496 21.9061 30.3334 22.56Z" stroke="#7360DF" stroke-width="2" stroke-linecap="round" stroke-linejoin="round"/>
</svg>
