<svg width="32" height="32" viewBox="0 0 32 32" fill="none" xmlns="http://www.w3.org/2000/svg">
<g clip-path="url(#clip0_16_62)">
<path d="M4.86804 4.48488C11.1905 -1.63999 21.2998 -1.47537 27.4247 4.88001C28.1162 3.95801 28.7089 2.93726 29.137 1.88351C31.1458 8.00838 32.3642 13.1454 31.903 17.1298C31.6725 20.4885 30.3554 23.7156 28.182 26.2841C22.5183 33.0018 12.4418 33.8579 5.72416 28.1941L5.59566 28.0798L5.58879 28.0753C5.56779 28.0606 5.54704 28.0453 5.52654 28.0294C5.46529 27.9816 5.40962 27.93 5.35954 27.8744L5.34154 27.8539L5.13154 27.6673C4.92654 27.4916 4.72166 27.316 4.53991 27.1173L4.47291 27.0415C-1.65209 20.719 -1.45434 10.6098 4.86804 4.48488ZM7.23879 25.922C6.64604 25.461 5.78991 25.5268 5.32879 26.1195C4.92354 26.6408 4.92554 27.3656 5.33491 27.8464L5.34154 27.8539L5.59566 28.0798L5.62054 28.0968C6.19604 28.4753 6.97054 28.397 7.41216 27.862L7.43641 27.8319C7.89741 27.2391 7.79866 26.383 7.23891 25.9219M28.9725 3.52988C27.3259 6.98751 23.2425 9.62188 19.7192 10.4451C16.3933 11.2354 13.4954 10.5769 10.433 11.7623C3.45203 14.4296 3.58379 22.7278 7.40354 24.6048L7.63404 24.7365C7.63404 24.7365 10.3933 24.1879 13.1218 23.4634L13.3555 23.4009C14.4453 23.1071 15.5174 22.7871 16.3933 22.4644C20.9375 20.785 25.9429 16.6359 27.5893 11.8281C26.7332 16.8334 22.4194 21.674 18.1055 23.8804C15.8005 25.0658 14.0224 25.3291 10.2355 26.6464C9.77454 26.811 9.41228 26.9758 9.41228 26.9758L9.55079 26.957L9.64279 26.9451L9.73441 26.9336C10.5707 26.8299 11.3222 26.7781 11.3222 26.7781C16.6897 26.5146 25.1197 28.2929 29.0383 23.0571C33.0557 17.7225 30.8165 9.09501 28.9725 3.52988Z" fill="#7051BA"/>
<path d="M7.23892 25.922C7.7988 26.383 7.89755 27.2392 7.43642 27.8319C6.97555 28.4247 6.1193 28.4905 5.52655 28.0294C4.9338 27.5683 4.86805 26.7123 5.32905 26.1195C5.79005 25.5268 6.64605 25.461 7.23892 25.922ZM28.9725 3.52991C30.8165 9.09503 33.0558 17.7225 29.0384 23.0572C25.1197 28.2929 16.6898 26.5147 11.3223 26.7782C11.3223 26.7782 10.5708 26.83 9.73455 26.9337L9.64292 26.9452C9.56634 26.9549 9.48951 26.9651 9.41242 26.9758C9.41242 26.9758 9.77467 26.811 10.2357 26.6464C14.0225 25.3293 15.8007 25.0658 18.1057 23.8804C22.4195 21.6742 26.7333 16.8334 27.5894 11.8282C25.943 16.6359 20.9377 20.785 16.3934 22.4644C13.2652 23.6169 7.63417 24.7365 7.63417 24.7365L7.40367 24.6048C3.58392 22.7278 3.45217 14.4297 10.4332 11.7623C13.4957 10.5769 16.3934 11.2354 19.7194 10.4452C23.2428 9.62191 27.326 6.98766 28.9725 3.52991Z" fill="white"/>
</g>
<defs>
<clipPath id="clip0_16_62">
<rect width="32" height="32" fill="white"/>
</clipPath>
</defs>
</svg>
