<svg width="32" height="32" viewBox="0 0 32 32" fill="none" xmlns="http://www.w3.org/2000/svg">
<g clip-path="url(#clip0_16_31)">
<mask id="mask0_16_31" style="mask-type:luminance" maskUnits="userSpaceOnUse" x="0" y="0" width="32" height="32">
<path d="M0 0H32V32H0V0Z" fill="white"/>
</mask>
<g mask="url(#mask0_16_31)">
<path d="M31.2387 4.67879e-06H0.760001C0.660084 4.52502e-06 0.561148 0.0197066 0.468853 0.0579835C0.376559 0.0962604 0.292718 0.152361 0.222128 0.223075C0.151538 0.293789 0.0955847 0.377728 0.0574696 0.470089C0.0193545 0.562451 -0.000174121 0.661421 1.17175e-06 0.761338V31.24C-0.000174472 31.34 0.0193981 31.4391 0.0575965 31.5316C0.0957948 31.624 0.151868 31.708 0.222599 31.7787C0.29333 31.8495 0.377329 31.9055 0.469777 31.9437C0.562226 31.9819 0.661305 32.0015 0.761335 32.0013H31.24C31.34 32.0015 31.4391 31.9819 31.5316 31.9437C31.624 31.9055 31.708 31.8495 31.7787 31.7787C31.8495 31.708 31.9055 31.624 31.9437 31.5316C31.9819 31.4391 32.0015 31.34 32.0013 31.24V0.760005C32.0013 0.659975 31.9816 0.56093 31.9432 0.468548C31.9049 0.376166 31.8486 0.292266 31.7778 0.221658C31.7069 0.151051 31.6228 0.0951255 31.5303 0.0570891C31.4378 0.0190527 31.3387 -0.000346302 31.2387 4.67879e-06ZM19.048 17.1013H15.2387V28.952H12.1907V17.1013H8.38133V14.476H19.048V17.1013ZM19.9013 28.2747V25.108C19.9013 25.108 21.632 26.412 23.708 26.412C25.784 26.412 25.704 25.0547 25.704 24.868C25.704 22.8987 19.8213 22.8987 19.8213 18.5333C19.8213 12.5973 28.3933 14.94 28.3933 14.94L28.2867 17.7613C28.2867 17.7613 26.8493 16.8027 25.2253 16.8027C23.6013 16.8027 23.016 17.576 23.016 18.4C23.016 20.5293 28.952 20.3173 28.952 24.6027C28.952 31.2027 19.9013 28.276 19.9013 28.276" fill="#7051BA"/>
</g>
</g>
<defs>
<clipPath id="clip0_16_31">
<rect width="32" height="32" fill="white"/>
</clipPath>
</defs>
</svg>
